<?xml version="1.0" encoding="UTF-8"?>
<svg xmlns="http://www.w3.org/2000/svg" viewBox="0 0 239.9 222" color="white">
  <path fill="currentColor" d="M153.34,86.88c.36.08.52-.13.79-.28,7.24-4.11,13.69-10.88,21.82-14.16,2.45-.99,4.85-2.04,4.41,1.78-.77,6.66-7.23,14.38-10.02,20.21-.14.29-.31.49-.22.85,9.05-.88,18.18-2.06,26.74-5.27,24.02-9.02,28.6-28.69,20.2-51.66-1.35-3.68-3.2-7.15-4.73-10.74,12.19,12.7,25.02,31.16,19.59,49.73-4.91,16.79-24.27,28.21-39.67,33.97-1.35.51-6.09,2.37-7.18,2.4-.85.03-4.83-1.32-6.26-1.56-17.35-2.81-31.07,4.78-39.96,19.39-3.29,5.41-5.93,12.33-5.78,18.71.08.12,1.5.7,1.69.7,1.17-.03,5.96-4.9,6.55-6.15,1.34-2.83-.31-4.68.09-6.63.91-4.41,8-9.69,11.77-11.74,1.01-.55,3.61-1.97,4.6-2.12.58-.09.39.67.37,1.09-.28,4.27-1.65,10.21-2.48,14.56-1.95,10.34-4.57,23.98-9.08,33.4-.86,1.81-2.98,5.91-5.12,6.16-14.5.34-28.89.38-43.39-.02-2.79-.43-5.61-7.3-6.55-9.76-5.43-14.15-7.38-30.2-10.13-45.06-.11-.76,1.09-.12,1.44,0,5.12,1.94,11.6,6.52,14.35,11.32,2.04,3.56.56,2.68.51,5.72-.03,1.71.52,3.14,1.58,4.44.63.78,4.81,4.74,5.51,4.79.21.01,1.73-.55,1.9-.68.74-.57-1.26-8.48-1.7-9.81-6.3-19.05-23.43-31.47-43.8-28.34-1.42.22-5.82,1.59-6.65,1.53-1.07-.09-3.72-1.15-4.89-1.55-14.47-4.99-31.69-14.57-39.24-28.4C-.45,63.81,13.29,41.88,27.21,27.84c-1.15,2.76-2.59,5.39-3.71,8.17-7.6,18.89-7.73,39.25,11.7,50.43,10.27,5.92,22.44,7.66,34.08,8.84l.25-.48c-3.12-4.83-6.38-10.1-8.56-15.44-.69-1.7-3.58-8.06-.09-7.85,2.93.18,10.48,5.19,13.2,6.96l12.1,8.4c-1.93-11.38-14.56-18.57-24.46-22.43-2.83-1.11-8.62-3.31-11.45-3.68-1.77-.23-1.81,3.2-1.73,4.39.4,6.02,3.93,12.64,5.98,18.27-.66,2.99-3.99,2.48-6.22,1.65-5.55-2.06-14.29-11.13-17.37-16.22-1.14-1.88-2.4-3.47-1.51-5.79L44.25,0c29.99,7.43,58.39,24.35,75.64,50.39C136.86,24.24,165.39,7.67,195.17,0c.33.09.89,2.76,1.02,3.31,4.65,18.62,8.97,37.44,13.19,56.15.33,1.45,1.11,4,1.22,5.29.09,1.05-1.82,4.06-2.49,5.07-3.07,4.63-12.99,14.98-18.5,15.8-1.97.29-3.93-.12-4.56-2.18,1.87-4.51,3.98-9.02,5.15-13.79.37-1.52,1.91-8.78-.52-8.91-8.66,2.33-17.55,5.37-24.91,10.59-5.22,3.7-10.39,8.98-11.43,15.55Z"/>
  <path fill="currentColor" d="M0,222l18.71-115.68c.47,0,2.87,2.69,3.5,3.22,5.42,4.56,13.33,8.09,20.07,10.15,10.57,3.24,21.85,4.41,32.9,4.39l-13.43,97.92H0Z"/>
  <path fill="currentColor" d="M239.9,222h-61.74l-13.77-97.53c.1-.29.31-.34.58-.39,1.51-.28,4.06.08,5.75,0,13.44-.69,28.3-3.38,40.09-10.04,3.68-2.08,7.12-4.64,10.03-7.72l19.06,115.68Z"/>

</svg>